<?xml version="1.0" encoding="utf-8" ?>
<svg xmlns="http://www.w3.org/2000/svg" xmlns:xlink="http://www.w3.org/1999/xlink" width="1024" height="1024">
	<path fill="#FEC621" transform="scale(1.6 1.6)" d="M247.305 59.6868C264.774 59.3935 235.895 95.8138 234.775 98.1822C222.44 124.258 264.637 129.916 246.688 166.595C243.013 174.103 234.683 185.08 226.471 187.87L226.061 187.86C214.459 187.663 222.483 179.698 226.834 176.171C232.786 171.348 237.663 164.979 240.034 157.638C246.148 138.715 232.63 135.449 226.002 122.39C214.021 98.7815 231.367 90.4431 239.492 75.3649C242.505 69.7734 240.597 62.8114 247.305 59.6868Z"/>
	<path fill="#FEC621" transform="scale(1.6 1.6)" d="M373.355 59.6868C378.949 58.7082 380.356 61.2348 379.345 66.7692C375.278 89.0283 345.088 97.8151 364.998 124.059C374.36 136.4 377.99 149.255 371.402 164.168C367.334 173.375 359.285 183.081 349.695 186.76C347.104 186.759 343.563 183.915 344.902 181.163C350.103 170.47 364.986 170.173 365.366 147.785C365.64 131.661 346.212 127.635 347.889 106.424C349.197 89.8784 358.973 86.3848 366.189 74.7361C368.823 70.4856 368.485 61.8603 373.355 59.6868Z"/>
	<path fill="#FEC621" transform="scale(1.6 1.6)" d="M307.076 53.4785C312.079 53.3218 312.74 55.7797 312.66 60.5751C312.46 72.6567 301.245 79.833 296.728 90.1941C288.34 109.437 307.528 114.944 313.264 129.819C321.768 151.87 309.49 176.488 287.703 184.706C284.423 185.205 283.811 182.305 283.195 179.718C285.637 173.109 299.881 168.294 305.172 154.888C318.27 121.703 261.876 118.127 295.8 74.4536C297.885 71.7691 300.351 69.1879 301.478 65.9195C303.091 61.2418 301.53 55.4969 307.076 53.4785Z"/>
	<path transform="scale(1.6 1.6)" d="M451.146 509.593C457.518 509.663 463.834 508.895 470.182 509.593C456.146 516.296 437.261 522.293 422.098 528.721C414.115 532.105 407.01 537.167 399.1 540.452C386.35 545.748 355.788 543.506 341.756 543.506L221.84 543.506C190.753 543.515 197.381 544.898 170.24 531.236C164.103 528.146 157.675 525.485 151.341 522.827C139.881 519.177 129.138 513.708 116.992 510.271C130.121 508.226 150.216 509.6 163.781 509.597L201.267 509.584C214.783 509.584 228.489 509.171 241.77 512.12C250.247 514.002 256.784 515.374 265.563 515.386L302.624 515.39C311.014 515.386 319.46 515.559 327.837 515.058C345.571 513.999 358.094 509.579 377.976 509.589L432.319 509.581C438.612 509.535 444.854 509.289 451.146 509.593Z"/>
	<path transform="scale(1.6 1.6)" d="M134.807 209.741L454.966 209.741L454.966 242.8C494.543 230.176 536.228 250.234 539.704 294.269C543.071 336.917 515.17 368.075 480.972 389.708C473.569 394.39 455.706 404.311 450.348 410.628L450.03 411.005C438.352 417.275 431.103 441.658 424.775 453.104C401.893 494.498 370.376 504.876 326.72 504.99L275.013 504.998C236.526 504.982 205.311 505.114 176.064 475.871C132.939 432.754 134.804 332.192 134.795 274.136L134.807 209.741ZM293.703 277.683C269.889 288.77 244.84 328.98 254.374 354.896L253.907 354.863C246.298 354.261 216.045 344.772 211.083 349.099C209.207 350.735 210.138 359.362 210.258 361.929C212.023 399.821 233.57 425.992 270.471 433.802C288.171 437.548 282.381 433.621 292.322 446.686C296.493 447.029 298.941 440.723 300.034 437.657L300.488 437.491C305.97 435.507 311.785 434.315 317.365 432.601C358.892 419.848 376.063 393.296 375.309 350.865C374.45 349.712 373.698 348.903 372.534 348.067L372.05 347.714C371.95 347.642 371.847 347.572 371.745 347.501C358.476 350.095 345.21 351.656 332.045 354.85L332.249 354.957L331.813 354.242C335.32 348.655 333.514 335.721 332.36 329.376C329.091 311.388 316.349 296.913 303.33 284.909C300.509 282.307 297.527 278.752 293.703 277.683ZM477.058 268.336C469.011 269.057 460.35 273.054 453.778 277.683C454.286 297.364 454.593 322.106 452.96 341.394C451.982 352.962 449.866 364.201 448.384 375.678C455.44 371.203 462.575 365.941 470.182 362.532L470.497 362.219C474.735 358.073 481.307 354.564 486.12 350.663C505.547 334.922 523.117 298.948 502.477 277.355C496.316 270.91 486.019 266.891 477.058 268.336Z"/>
	<path fill="#FEC621" transform="scale(1.6 1.6)" d="M298.028 292.361C312.111 301.78 325.652 325 325.333 341.935C325.232 347.317 324.234 352.573 324.016 357.929C320.156 360.063 316.546 362.713 312.958 365.267C310.246 367.369 301.425 377.733 299.857 377.836C297.736 375.14 299.207 322.962 298.914 314.065C298.676 306.828 297.457 299.601 298.028 292.361Z"/>
	<path fill="#FEC621" transform="scale(1.6 1.6)" d="M289.926 289.885L290.579 290.318C292.806 296.56 290.092 309.426 289.945 316.369C289.515 336.727 289.92 357.189 289.926 377.556C285.171 373.707 281.267 367.509 275.457 365.267C268.419 358.432 261.17 357.525 261.278 346.144C261.514 321.053 272.877 306.488 289.926 289.885Z"/>
	<path fill="#FEC621" transform="scale(1.6 1.6)" d="M361.502 358.906C374.93 356.941 358.911 391.025 356.177 395.443C347.798 408.984 328.576 422.1 312.958 425.807C315.638 420.739 325.797 412.628 330.208 407.728C337.442 399.693 342.702 390.388 349.006 381.688C350.804 379.207 361.697 368.77 358.751 365.411L355.867 365.267C351.962 367.244 349.407 372.079 346.588 375.282C331.93 391.942 318.12 408.662 300.034 421.745C299.05 413.462 297.738 391.548 304.18 385.14C318.27 371.126 341.378 358.738 361.502 358.906ZM315.753 388.445C304.266 394.359 304.609 401.608 304.763 413.315C305.56 412.57 306.379 411.846 307.076 411.005C312.775 405.582 319.257 399.79 320.619 391.633C319.516 388.654 318.896 388.313 315.753 388.445Z"/>
	<defs>
		<linearGradient id="gradient_0" gradientUnits="userSpaceOnUse" x1="243.83011" y1="351.51981" x2="269.76303" y2="428.12857">
			<stop offset="0" stop-color="#FFD516"/>
			<stop offset="1" stop-color="#FFBC27"/>
		</linearGradient>
	</defs>
	<path fill="url(#gradient_0)" transform="scale(1.6 1.6)" d="M219.76 358.906C238.098 359.128 282.804 369.842 287.76 389.544C289.117 394.937 288.867 414.657 288.458 420.771C288.071 426.559 279.228 413.713 278.03 412.437C267.252 400.964 242.715 375.451 231.98 369.297L231.583 369.071C229.945 368.247 228.206 367.713 226.471 367.138C234.128 380.41 253.425 401.516 263.859 412.753C268.49 417.74 273.594 422.383 277.674 427.845C263.762 423.814 243.246 415.506 234.632 404.311C225.718 392.727 217.85 373.987 219.76 358.906ZM273.499 386.756C270.837 388.622 269.98 390.136 269.089 393.206C271.304 400.306 279.04 406.857 283.195 413.315L284.688 414.783C284.733 407.562 284.957 386.395 273.499 386.756Z"/>
</svg>
