<?xml version="1.0" encoding="utf-8" ?>
<svg xmlns="http://www.w3.org/2000/svg" xmlns:xlink="http://www.w3.org/1999/xlink" width="1024" height="1024">
	<path fill="#431C0B" d="M435.621 286.961C434.725 260.345 424.447 249.521 411.112 228.29C400.481 211.363 396.099 194.215 400.705 174.514C406.371 150.277 424.164 128.534 445.123 115.625C448.397 113.608 460.964 106.466 464.363 107.271C463.298 107.947 463.096 107.932 462.693 109.103C457.923 108.968 443.856 121.213 440.182 124.663C422.987 140.813 406.753 163.149 406.033 187.608C404.916 225.593 436.697 240.334 440.415 270.061C441.219 276.489 439.718 282.174 438.993 288.457C437.769 287.399 437.222 287.19 435.621 286.961Z"/>
	<path fill="#191819" d="M550.967 287.102C560.642 237.712 528.196 230.235 518.329 190.277C513.93 172.464 518.292 153.314 527.665 137.8C540.941 115.826 560.538 105.207 584.829 99.3026C583.292 100.4 581.777 101.542 580.124 102.461L578.92 105.417L578.973 106.071C568.606 114.78 566.811 120.297 563.175 133.001C562.006 139.782 560.747 146.43 561.536 153.339C563.281 168.611 572.088 181.246 579.416 194.303C596.935 225.518 593.861 254.995 572.681 283.494C566.769 291.448 559.859 298.204 553.073 305.369C550.087 307.117 547.564 308.797 544.062 309.233C543.136 308.435 543.509 308.926 542.99 307.725L542.416 307.649C522.571 306.607 503.028 306.413 483.165 307.106C471.787 307.503 460.19 307.744 449.042 310.276L447.918 308.64C444.857 308.208 441.251 308.627 438.097 308.492C433.957 310.735 430.91 312.549 426.071 312.526C430.159 304.235 435.863 297.33 438.993 288.457C439.718 282.174 441.219 276.489 440.415 270.061C436.697 240.334 404.916 225.593 406.033 187.608C406.753 163.149 422.987 140.813 440.182 124.663C443.856 121.213 457.923 108.968 462.693 109.103C463.44 109.045 462.998 109.031 464.009 109.284C462.489 111.257 460.573 112.831 459.084 114.86C453.613 122.317 450.985 130.397 450.117 139.509C446.09 181.771 494.25 182.506 500.973 229.526C504.108 251.454 496.517 268.754 483.642 285.933Q500.474 285.131 517.323 285.424Q534.172 285.716 550.967 287.102Z"/>
	<path fill="#683823" d="M444.575 142.947C446.559 153.016 446.535 162.866 451.805 172.045C457.667 182.253 468.367 188.411 476.391 196.675C498.44 219.386 500.16 250.963 482.626 276.961C476.512 286.025 468.299 294.953 459.343 301.26C455.636 303.871 451.613 306.025 447.918 308.64C444.857 308.208 441.251 308.627 438.097 308.492C449.939 296.692 461.78 283.461 467.53 267.517C474.881 247.136 471.522 227.579 460.968 209.074C456.514 201.265 451.267 193.973 447.459 185.794C441.255 172.471 439.418 156.929 444.575 142.947Z"/>
	<path fill="#935542" d="M438.993 288.457C439.718 282.174 441.219 276.489 440.415 270.061C436.697 240.334 404.916 225.593 406.033 187.608C406.753 163.149 422.987 140.813 440.182 124.663C443.856 121.213 457.923 108.968 462.693 109.103C454.996 116.953 450.013 123.846 446.767 134.475C445.923 137.239 445.52 140.249 444.575 142.947C439.418 156.929 441.255 172.471 447.459 185.794C451.267 193.973 456.514 201.265 460.968 209.074C471.522 227.579 474.881 247.136 467.53 267.517C461.78 283.461 449.939 296.692 438.097 308.492C433.957 310.735 430.91 312.549 426.071 312.526C430.159 304.235 435.863 297.33 438.993 288.457Z"/>
	<path fill="#DF9A65" d="M444.354 126.994L444.751 127.439C444.294 131.248 441.901 135.564 440.483 139.153C436.44 149.384 434.706 159.728 435.102 170.746C436.107 198.695 457.955 219.623 458.234 247.504C458.328 256.959 456.315 266.276 454.373 275.478C453.155 270.7 451.756 266.054 450.205 261.377C444.38 247.197 436.58 237.815 427.476 225.787C416.761 211.629 410.302 197.106 412.923 179.021Q413.217 177.094 413.606 175.184Q413.994 173.273 414.475 171.384Q414.957 169.495 415.53 167.632Q416.103 165.769 416.767 163.936Q417.431 162.103 418.184 160.305Q418.937 158.507 419.777 156.747Q420.617 154.988 421.542 153.272Q422.467 151.557 423.475 149.888Q424.483 148.219 425.571 146.602Q426.66 144.985 427.826 143.423Q428.993 141.861 430.234 140.358Q431.476 138.855 432.789 137.415Q434.103 135.974 435.485 134.6Q436.868 133.226 438.316 131.921Q439.764 130.616 441.275 129.383Q442.785 128.151 444.354 126.994Z"/>
	<path fill="#F9DCB5" d="M436.355 136.373C437.002 139.656 431.946 152.909 431.004 157.073C430.28 160.274 430.022 163.622 429.779 166.889C428.094 189.516 435.455 207.572 441.578 228.797C439.578 226.131 437.494 223.555 435.364 220.991C426.941 209.646 417.951 199.731 417.69 184.766C417.439 170.303 426.369 146.76 436.355 136.373Z"/>
	<path fill="#935542" d="M566.617 109.617C570.683 106.748 575.415 104.065 580.124 102.461L578.92 105.417L578.973 106.071C568.606 114.78 566.811 120.297 563.175 133.001C562.006 139.782 560.747 146.43 561.536 153.339C563.281 168.611 572.088 181.246 579.416 194.303C596.935 225.518 593.861 254.995 572.681 283.494C566.769 291.448 559.859 298.204 553.073 305.369C550.087 307.117 547.564 308.797 544.062 309.233C543.136 308.435 543.509 308.926 542.99 307.725C543.526 307.372 543.541 307.385 544.104 306.877C549.138 302.341 552.894 293.438 555.107 287.183C572.758 237.293 521.864 216.412 524.085 172.513Q524.177 170.862 524.349 169.218Q524.521 167.574 524.773 165.941Q525.025 164.307 525.356 162.687Q525.687 161.068 526.096 159.466Q526.505 157.864 526.992 156.285Q527.478 154.705 528.041 153.151Q528.604 151.596 529.242 150.071Q529.88 148.546 530.591 147.054Q531.302 145.562 532.085 144.106Q532.867 142.65 533.72 141.234Q534.573 139.817 535.493 138.444Q536.414 137.071 537.4 135.745Q538.386 134.418 539.436 133.141Q540.485 131.864 541.596 130.639Q542.706 129.414 543.874 128.245Q545.043 127.076 546.267 125.965C552.93 120.252 559.582 114.884 566.617 109.617Z"/>
	<path fill="#DF9A65" d="M566.617 109.617L567.935 111.384C567.467 114.254 564.561 117.926 563.08 120.497C557.43 130.299 554.003 140.07 553.536 151.458C553.002 164.511 557.071 176.668 562.143 188.501C573.262 214.441 577.862 230.421 571.917 258.724C567.367 247.194 563.854 236.959 557.054 226.357C552.675 219.531 546.642 213.632 541.833 207.064C529.567 190.312 525.752 169.174 534.287 149.71C535.372 147.236 536.565 144.774 537.931 142.443C540.113 138.72 547.292 130.289 546.267 125.965C552.93 120.252 559.582 114.884 566.617 109.617Z"/>
	<path fill="#F9DCB5" d="M553.348 127.401C553.908 132.06 550.348 139.805 549.181 144.497C548.02 149.166 547.216 154.132 547.324 158.954C547.58 170.312 551.098 180.768 553.362 191.77Q555.37 201.757 555.585 211.942Q553.528 208.815 551.38 205.75C544.725 196.112 538.214 186.194 536.969 174.262C535.154 156.854 542.553 140.602 553.348 127.401Z"/>
	<path fill="#683823" d="M140.482 777.979C145.833 785.045 149.586 792.539 155.771 799.171C183.305 828.697 228.5 845.422 266.304 856.766C397.864 896.243 601.675 897.066 733.368 857.775C756.057 851.005 779.061 842.854 799.933 831.58C820.707 820.358 843.479 805.196 855.227 784.097C858.906 777.489 861.184 770.44 863.333 763.225C880.663 771.24 901.876 785.023 908.643 803.776Q908.93 804.592 909.177 805.421Q909.424 806.25 909.629 807.09Q909.834 807.93 909.997 808.78Q910.16 809.629 910.281 810.485Q910.402 811.342 910.48 812.203Q910.558 813.065 910.593 813.929Q910.629 814.793 910.621 815.658Q910.613 816.523 910.563 817.386Q910.512 818.25 910.419 819.109Q910.325 819.969 910.189 820.824Q910.053 821.678 909.875 822.524Q909.697 823.37 909.477 824.207Q909.257 825.043 908.995 825.868Q908.734 826.692 908.432 827.503Q908.13 828.313 907.788 829.108Q907.447 829.902 907.066 830.679C892.717 860.527 842.955 879.209 813.362 889.362C792.282 896.595 770.578 901.592 748.835 906.368Q728.594 910.629 708.2 914.087Q687.807 917.545 667.293 920.195Q646.778 922.845 626.175 924.683Q605.572 926.521 584.913 927.543Q566.499 928.717 548.057 929.329Q529.616 929.942 511.165 929.993Q492.713 930.044 474.269 929.533Q455.824 929.023 437.404 927.951Q418.983 926.879 400.604 925.248Q382.225 923.616 363.904 921.425Q345.583 919.234 327.337 916.487Q309.091 913.74 290.937 910.439C248.992 902.49 206.71 892.675 168.183 873.761C148.992 864.34 122.898 849.6 115.688 828.338C112.478 818.872 114.304 809.682 118.702 800.966C123.41 791.635 131.865 783.694 140.482 777.979Z"/>
	<path fill="#191819" d="M578.92 105.417L581.265 104.135C580.969 106.316 575.953 110.491 574.355 112.453C572.845 114.308 571.814 116.674 570.864 118.855C565.785 130.514 568.797 141.267 576.125 150.929C582.866 159.815 591.755 167.001 599.371 175.129C615.89 192.759 625.308 216.736 622.197 241.015C619.547 261.694 606.193 277.082 591.462 290.702C641.788 299.933 728.154 317.938 759.093 363.175C764.555 371.162 767.816 380.503 769.721 389.939C774.898 389.073 780.407 389.338 785.637 389.577C807.985 390.594 829.316 396.65 847.623 409.821C868.748 425.019 883.288 447.343 887.406 473.158C893.003 508.25 879.156 542.083 858.764 569.992C837.933 598.502 811.472 621.5 781.378 639.75C772.134 645.356 762.082 649.561 753.122 655.636C790.693 668.17 838.538 689.033 857.27 726.083C862.882 737.182 865.135 750.906 863.333 763.225C861.184 770.44 858.906 777.489 855.227 784.097C843.479 805.196 820.707 820.358 799.933 831.58C779.061 842.854 756.057 851.005 733.368 857.775C601.675 897.066 397.864 896.243 266.304 856.766C228.5 845.422 183.305 828.697 155.771 799.171C149.586 792.539 145.833 785.045 140.482 777.979C139.425 775.656 138.344 773.332 137.508 770.918C132.227 755.672 133.495 739.826 140.586 725.382C161.87 682.033 221.858 660.201 264.508 645.689Q259.458 634.468 254.995 623.002Q250.532 611.535 246.668 599.853Q242.803 588.171 239.547 576.305Q236.291 564.439 233.653 552.421Q231.895 544.483 230.412 536.488Q228.93 528.494 227.725 520.453Q226.52 512.412 225.595 504.334Q224.669 496.257 224.024 488.152Q223.379 480.047 223.015 471.924Q222.651 463.801 222.569 455.671Q222.486 447.541 222.685 439.413Q222.884 431.284 223.365 423.168C224.379 403.027 224.977 381.476 236.234 363.982C263.493 321.62 340.415 302.031 386.953 293.936Q400.783 291.57 414.717 289.925C421.465 289.101 428.447 288.542 435.089 287.082L435.621 286.961C437.222 287.19 437.769 287.399 438.993 288.457C435.863 297.33 430.159 304.235 426.071 312.526C430.91 312.549 433.957 310.735 438.097 308.492C441.251 308.627 444.857 308.208 447.918 308.64L449.042 310.276C460.19 307.744 471.787 307.503 483.165 307.106C503.028 306.413 522.571 306.607 542.416 307.649L542.99 307.725C543.509 308.926 543.136 308.435 544.062 309.233C547.564 308.797 550.087 307.117 553.073 305.369C559.859 298.204 566.769 291.448 572.681 283.494C593.861 254.995 596.935 225.518 579.416 194.303C572.088 181.246 563.281 168.611 561.536 153.339C560.747 146.43 562.006 139.782 563.175 133.001C566.811 120.297 568.606 114.78 578.973 106.071L578.92 105.417Z"/>
	<path fill="#F9DCB5" d="M767.554 410.938C793.626 409.524 820.44 415.521 840.355 433.364C843.963 436.596 847.3 440.264 849.986 444.303C847.193 444.04 838.714 438.039 835.583 436.546C831.41 434.555 826.966 432.732 822.505 431.505C810.101 428.093 796.588 427.846 783.923 429.956C778.372 430.88 772.608 432.455 766.972 432.378C766.776 432.376 766.58 432.368 766.384 432.363C766.587 425.204 767.237 418.087 767.554 410.938Z"/>
	<path fill="#D97739" d="M766.384 432.363C766.58 432.368 766.776 432.376 766.972 432.378C772.608 432.455 778.372 430.88 783.923 429.956C796.588 427.846 810.101 428.093 822.505 431.505C826.966 432.732 831.41 434.555 835.583 436.546C838.714 438.039 847.193 444.04 849.986 444.303C862.38 460.02 866.43 479.026 864.181 498.731C863.29 506.533 861.101 514.029 858.735 521.49C856.737 517.111 858.373 510.238 857.987 505.438C857.334 497.341 853.995 488.737 849.877 481.804C842.982 470.197 831.604 459.169 818.233 455.811C814.428 454.728 810.774 453.074 806.924 452.028C792.399 448.085 778.623 450.074 764.371 454.049C765.117 447.074 764.501 439.079 766.384 432.363Z"/>
	<path fill="#935542" d="M790.415 473.732C791.029 473.724 791.636 473.723 792.25 473.74C797.028 473.875 802.456 474.247 805.864 478.055C809.142 481.718 809.6 487.204 809.232 491.892C807.213 517.584 784.271 539.173 765.7 554.902Q760.215 559.279 754.481 563.323C758.834 541.447 762.728 519.648 764.811 497.42C765.382 491.326 766.308 485.004 766.221 478.885C774.017 475.79 782.064 474.222 790.415 473.732Z"/>
	<path fill="#683823" d="M563.175 133.001C564.564 140.83 566.095 147.803 570.4 154.63C576.842 164.846 587.28 172.075 595.16 181.107C618.583 207.953 622.742 241.362 602.003 271.151C593.096 283.946 574.84 301.822 559.999 307.178C559.851 307.209 559.705 307.241 559.557 307.271C556.608 307.854 555.474 306.999 553.073 305.369C559.859 298.204 566.769 291.448 572.681 283.494C593.861 254.995 596.935 225.518 579.416 194.303C572.088 181.246 563.281 168.611 561.536 153.339C560.747 146.43 562.006 139.782 563.175 133.001Z"/>
	<path fill="#683823" d="M818.233 455.811C831.604 459.169 842.982 470.197 849.877 481.804C853.995 488.737 857.334 497.341 857.987 505.438C858.373 510.238 856.737 517.111 858.735 521.49C858.155 523.653 856.843 525.986 855.93 528.048C833.722 578.171 779.274 620.752 728.907 640.132C731.242 632.638 734.903 625.33 737.828 618.022C740.631 611.018 742.894 603.8 745.593 596.751C756.078 590.889 766.052 584.726 775.614 577.438C800.887 558.173 828.603 529.325 832.845 496.613C834.096 486.962 833.615 474.06 827.485 466.018C824.881 462.602 821.35 459.929 818.765 456.524L818.233 455.811Z"/>
	<defs>
		<linearGradient id="gradient_0" gradientUnits="userSpaceOnUse" x1="552.59637" y1="540.68262" x2="686.10968" y2="677.57935">
			<stop offset="0" stop-color="#AC8463"/>
			<stop offset="1" stop-color="#CFA37E"/>
		</linearGradient>
	</defs>
	<path fill="url(#gradient_0)" d="M745.502 431.293C744.582 452.984 743.935 474.713 741.624 496.312C732.473 581.81 704.154 665.384 639.47 724.847C597.106 763.791 547.376 781.517 490.391 783.217C496.11 777.19 502.635 771.978 508.252 765.871L509.396 765.154C545.026 763.875 583.872 747.077 612.18 725.836C676.595 677.504 708.345 598.75 722.018 521.748C723.771 511.877 725.114 501.76 726.074 491.784C726.612 486.187 726.744 480.512 727.574 474.952L727.671 474.334C718.223 478.822 709.008 483.659 699.417 487.868Q687.495 493.164 675.253 497.671Q663.011 502.179 650.501 505.88Q637.992 509.581 625.267 512.46Q612.543 515.338 599.659 517.382C600.989 509.506 600.93 499.817 601.53 491.697C612.171 490.199 622.754 487.742 633.227 485.36C674.176 476.047 715.319 461.659 745.502 431.293Z"/>
	<path fill="#F1EDE6" d="M560.439 308.971C576.014 310.658 591.667 312.189 607.105 314.927C643.838 321.439 707.608 338.429 731.693 368.182C737.707 375.611 741.735 384.444 740.713 394.196C739.306 407.629 730.017 417.654 719.82 425.682C701.146 440.383 679.023 449.018 656.625 456.14C653.768 457.048 651.066 458.398 648.172 459.218C616.81 468.107 582.733 472.667 550.3 475.054C503.824 478.476 459.529 477.843 413.224 472.053C369.647 466.605 287.592 450.289 259.414 414.38C253.696 407.093 249.936 398.17 251.166 388.762C253.01 374.665 264.525 363.586 275.366 355.557C304.401 334.056 345.829 323.937 380.741 317.063C394.887 314.278 409.094 311.717 423.511 310.865C422.38 312.181 421.272 313.497 420.022 314.702C387.438 320.219 354.692 325.481 323.589 337.087L324.512 337.799C323.162 340.389 321.142 342.509 319.798 345.077C317.067 350.296 315.404 356.225 312.937 361.6C309.058 370.053 303.972 378.074 299.693 386.345C298.308 389.021 296.069 395.681 294.336 397.676C293.976 398.091 293.426 398.31 293.064 398.724C292.826 398.997 292.658 399.537 292.533 399.882C291.329 401.408 289.611 402.603 288.162 403.896C283.939 407.66 280.008 411.459 277.29 416.459Q281.631 420.407 286.271 423.999C351.124 473.277 506.155 475.743 584.508 464.516C621.647 459.194 679.012 447.505 708.113 422.827C712.729 418.912 716.276 414.344 719.882 409.533C699.865 387.662 670.336 377.973 643.175 368.609C641.659 367.036 639.424 366.349 637.409 365.64L637.17 364.654C640.342 357.568 638.716 351.787 636.494 344.709C635.99 343.107 635.216 341.295 635.057 339.617C634.598 334.786 635.587 330.853 633.882 326.096C616.131 320.564 596.336 317.484 577.908 315.313C571.107 314.512 561.119 314.577 554.86 312.912C553.755 312.618 553.961 312.52 553.429 311.599C555.71 310.583 558.085 309.801 560.439 308.971Z"/>
	<path fill="#683823" d="M277.29 416.459C272.578 412.149 268.292 405.999 266.069 399.995C263.277 392.456 264.028 384.822 267.409 377.636C277.299 356.616 302.757 344.593 323.589 337.087L324.512 337.799C323.162 340.389 321.142 342.509 319.798 345.077C317.067 350.296 315.404 356.225 312.937 361.6C309.058 370.053 303.972 378.074 299.693 386.345C298.308 389.021 296.069 395.681 294.336 397.676C293.976 398.091 293.426 398.31 293.064 398.724C292.826 398.997 292.658 399.537 292.533 399.882C291.329 401.408 289.611 402.603 288.162 403.896C283.939 407.66 280.008 411.459 277.29 416.459Z"/>
	<path fill="#BDB3B1" d="M633.882 326.096C661.296 332.424 705.433 348.314 720.798 372.912C725.477 380.402 727.367 389.05 725.406 397.753C724.41 402.172 722.366 405.806 719.882 409.533C699.865 387.662 670.336 377.973 643.175 368.609C641.659 367.036 639.424 366.349 637.409 365.64L637.17 364.654C640.342 357.568 638.716 351.787 636.494 344.709C635.99 343.107 635.216 341.295 635.057 339.617C634.598 334.786 635.587 330.853 633.882 326.096Z"/>
	<path fill="#F9DCB5" d="M245.012 431.279C252.169 437.774 259.287 444.025 267.326 449.425C334.712 494.691 452.095 502.14 531.637 498.688C555.022 497.674 578.521 496.156 601.53 491.697C600.93 499.817 600.989 509.506 599.659 517.382C509.887 534.169 379.141 527.349 295.593 489.132C283.936 483.8 273.681 477.183 262.94 470.283C268.573 561.43 296.91 657.324 367.403 719.619C400.732 749.071 447.695 769.606 492.744 766.852C497.915 766.536 503.07 765.984 508.252 765.871C502.635 771.978 496.11 777.19 490.391 783.217C490.012 783.247 489.632 783.275 489.252 783.272Q479.873 783.142 470.544 782.17Q461.214 781.198 452.01 779.391C405.044 770.612 369.729 747.35 337.167 713.335C281.732 655.426 254.19 573.413 246.788 494.867C244.788 473.648 244.545 452.563 245.012 431.279Z"/>
	<path fill="#935542" d="M727.671 474.334L727.574 474.952C726.744 480.512 726.612 486.187 726.074 491.784C725.114 501.76 723.771 511.877 722.018 521.748C708.345 598.75 676.595 677.504 612.18 725.836C583.872 747.077 545.026 763.875 509.396 765.154C528.27 747.702 543.943 728.967 558.663 707.917L558.053 707.718C548.737 704.597 541.799 698.84 537.455 689.97C529.13 672.966 532.442 651.893 538.462 634.737C546.678 611.325 561.668 592.157 584.281 581.362C589.415 567.337 593.505 551.755 596.306 537.082C597.552 530.553 598.098 523.838 599.659 517.382Q612.543 515.338 625.267 512.46Q637.992 509.581 650.501 505.88Q663.011 502.179 675.253 497.671Q687.495 493.164 699.417 487.868C709.008 483.659 718.223 478.822 727.671 474.334Z"/>
	<path fill="#431C0B" d="M584.281 581.362C592.859 579.198 601.217 578.086 609.191 583.055C620.424 590.054 626.362 604.498 628.943 616.904C633.667 639.614 628.67 662.869 615.851 682.087C607.328 694.863 594.736 705.886 579.262 708.794C572.363 710.09 565.464 709.461 558.663 707.917L558.053 707.718C548.737 704.597 541.799 698.84 537.455 689.97C529.13 672.966 532.442 651.893 538.462 634.737C546.678 611.325 561.668 592.157 584.281 581.362Z"/>
	<path fill="#F9DCB5" d="M605.112 591.463C607.912 609.131 577.785 668.239 568.605 685.862L566.493 688.486C566.251 688.455 565.97 688.494 565.775 688.347C583.108 657.717 594.729 624.97 605.112 591.463Z"/>
	<path fill="#863205" d="M596.622 585.04L598.275 585.126L598.78 585.753C594.837 598.969 589.07 610.76 583.154 623.161C572.748 644.975 561.528 670.006 543.29 686.561C537.582 677.795 538.336 658.405 540.441 648.373C541.185 644.823 542.075 642.092 544.412 639.255C547.735 629.018 551.914 619.562 558.337 610.853C567.761 598.074 580.593 587.525 596.622 585.04Z"/>
	<path fill="#F9DCB5" d="M596.622 585.04C591.516 588.274 586.409 591.307 581.627 595.037C563.773 608.965 549.021 628.986 544.026 651.3Q543.356 654.32 542.746 657.353C542.732 651.231 543.487 645.296 544.412 639.255C547.735 629.018 551.914 619.562 558.337 610.853C567.761 598.074 580.593 587.525 596.622 585.04Z"/>
	<path fill="#683823" d="M605.112 591.463C605.191 590.375 605.28 589.764 605.849 588.825C607.391 588.849 607.964 589.605 609.182 590.509C619.238 598.618 623.828 611.429 625.192 623.941C627.464 644.796 621.302 667.304 608.014 683.643C599.798 693.744 588.418 702.473 575.079 703.74C568.133 704.4 561.711 702.796 555.048 701.067C558.066 696.585 562.809 693.422 565.325 688.845C565.433 688.649 565.625 688.513 565.775 688.347C565.97 688.494 566.251 688.455 566.493 688.486L568.605 685.862C577.785 668.239 607.912 609.131 605.112 591.463Z"/>
	<path fill="#863205" d="M605.112 591.463C605.191 590.375 605.28 589.764 605.849 588.825C607.391 588.849 607.964 589.605 609.182 590.509C609.212 590.672 609.24 590.835 609.272 590.998C610.373 596.633 612.843 601.932 614.02 607.561C617.628 624.821 612.429 642.282 602.873 656.718C596.751 665.965 582.725 683.659 570.945 685.652C570.17 685.783 569.389 685.827 568.605 685.862C577.785 668.239 607.912 609.131 605.112 591.463Z"/>
	<path fill="#935542" d="M716.941 665.578C753.127 676.343 815.5 696.977 834.423 732.167C839.671 741.926 841.16 753.205 837.847 763.857C831.424 784.505 810.07 800.161 791.64 809.683C754.447 828.898 714.737 840.306 673.796 848.439C663.098 850.564 652.097 853.202 641.191 853.802C635.889 849.773 612.693 843.653 604.481 840.785C596.242 837.907 588.163 834.595 579.855 831.902L579.92 831.521C567.776 827.403 556.126 822.396 543.769 818.786L543.027 817.967C535.986 810.995 523.621 809.991 517.305 804.557C521.376 801.895 541.063 799.71 547.135 798.345C552.707 797.093 558.219 795.282 563.665 793.567C601.123 781.769 632.249 761.562 661.448 735.672C667.28 730.5 673.213 722.137 678.393 717.934C678.607 717.761 678.825 717.593 679.041 717.422C685.34 712.415 689.303 704.547 695.036 698.911Q702.913 688.321 709.91 677.131C712.263 673.374 714.328 669.124 716.941 665.578Z"/>
	<path fill="#683823" d="M695.036 698.911L695.473 699.15C701.947 702.626 709.188 705.043 715.909 708.054C731.827 715.187 752.737 727.053 758.07 745.081C760.38 752.888 758.611 760.79 754.677 767.714C739.733 794.017 691.083 808.667 663.497 816.081C645.394 820.946 626.752 824.47 608.229 827.32C599.855 828.608 587.769 829.245 579.92 831.521C567.776 827.403 556.126 822.396 543.769 818.786C547.197 818.188 550.718 818.272 554.182 817.975Q565.631 816.922 577.067 815.728C603.886 812.929 630.402 808.769 656.212 800.785C675.29 794.884 705.138 783.948 714.536 765.34C717.456 759.558 717.794 752.966 715.645 746.862C710.321 731.741 692.27 723.937 679.041 717.422C685.34 712.415 689.303 704.547 695.036 698.911Z"/>
	<path fill="#242924" d="M517.305 804.557C521.376 801.895 541.063 799.71 547.135 798.345C552.707 797.093 558.219 795.282 563.665 793.567C601.123 781.769 632.249 761.562 661.448 735.672C667.28 730.5 673.213 722.137 678.393 717.934C678.607 717.761 678.825 717.593 679.041 717.422C692.27 723.937 710.321 731.741 715.645 746.862C717.794 752.966 717.456 759.558 714.536 765.34C705.138 783.948 675.29 794.884 656.212 800.785C630.402 808.769 603.886 812.929 577.067 815.728Q565.631 816.922 554.182 817.975C550.718 818.272 547.197 818.188 543.769 818.786L543.027 817.967C535.986 810.995 523.621 809.991 517.305 804.557Z"/>
	<path fill="#F9DCB5" d="M641.191 853.802C536.75 867.89 428.308 867.9 324.745 847.042C286.091 839.257 248.617 829.059 213.004 811.821C192.877 802.08 168.051 786.814 160.475 764.535C156.922 754.084 158.175 742.948 163.148 733.177C180.772 698.553 239.845 676.977 274.78 665.514Q282.353 678.982 290.812 691.912C296.241 698.363 300.536 705.91 306.209 712.12C315.833 723.318 325.353 734.481 336.308 744.43C373.021 777.771 421.684 799.682 471.244 803.634C478.901 804.245 486.967 804.836 494.652 804.889C501.391 804.936 511.038 802.307 517.305 804.557C523.621 809.991 535.986 810.995 543.027 817.967L543.769 818.786C556.126 822.396 567.776 827.403 579.92 831.521L579.855 831.902C588.163 834.595 596.242 837.907 604.481 840.785C612.693 843.653 635.889 849.773 641.191 853.802Z"/>
	<path fill="#DF9A65" d="M290.812 691.912C296.241 698.363 300.536 705.91 306.209 712.12C290.848 718.579 269.006 728.691 262.198 745.01C260.281 749.604 260.12 754.312 262.088 758.918C268.873 774.8 295.784 785.961 311.311 791.815C370.778 814.234 442.664 819.51 505.92 819.516C515.872 819.517 533.901 820.504 543.027 817.967L543.769 818.786C556.126 822.396 567.776 827.403 579.92 831.521L579.855 831.902C565.175 834.848 549.459 834.764 534.517 835.468C460.949 838.932 384.69 834.805 313.569 814.683C286.237 806.949 243.972 793.259 229.619 767.115C225.353 759.344 224.285 750.558 226.887 742.053C233.092 721.77 255.201 708.878 273.196 700.192C278.877 697.449 284.868 695.165 290.398 692.142L290.812 691.912Z"/>
	<defs>
		<linearGradient id="gradient_1" gradientUnits="userSpaceOnUse" x1="503.62622" y1="731.20105" x2="289.28281" y2="821.54376">
			<stop offset="0" stop-color="#3D3B2B"/>
			<stop offset="1" stop-color="#4C7856"/>
		</linearGradient>
	</defs>
	<path fill="url(#gradient_1)" d="M306.209 712.12C315.833 723.318 325.353 734.481 336.308 744.43C373.021 777.771 421.684 799.682 471.244 803.634C478.901 804.245 486.967 804.836 494.652 804.889C501.391 804.936 511.038 802.307 517.305 804.557C523.621 809.991 535.986 810.995 543.027 817.967C533.901 820.504 515.872 819.517 505.92 819.516C442.664 819.51 370.778 814.234 311.311 791.815C295.784 785.961 268.873 774.8 262.088 758.918C260.12 754.312 260.281 749.604 262.198 745.01C269.006 728.691 290.848 718.579 306.209 712.12Z"/>
	<path fill="#431C0B" d="M553.073 305.369C555.474 306.999 556.608 307.854 559.557 307.271C559.705 307.241 559.851 307.209 559.999 307.178L560.439 308.971C558.085 309.801 555.71 310.583 553.429 311.599C553.961 312.52 553.755 312.618 554.86 312.912C561.119 314.577 571.107 314.512 577.908 315.313C596.336 317.484 616.131 320.564 633.882 326.096C635.587 330.853 634.598 334.786 635.057 339.617C635.216 341.295 635.99 343.107 636.494 344.709C638.716 351.787 640.342 357.568 637.17 364.654L637.409 365.64C639.424 366.349 641.659 367.036 643.175 368.609C670.336 377.973 699.865 387.662 719.882 409.533C716.276 414.344 712.729 418.912 708.113 422.827C679.012 447.505 621.647 459.194 584.508 464.516C506.155 475.743 351.124 473.277 286.271 423.999Q281.631 420.407 277.29 416.459C280.008 411.459 283.939 407.66 288.162 403.896C289.611 402.603 291.329 401.408 292.533 399.882C292.658 399.537 292.826 398.997 293.064 398.724C293.426 398.31 293.976 398.091 294.336 397.676C296.069 395.681 298.308 389.021 299.693 386.345C303.972 378.074 309.058 370.053 312.937 361.6C315.404 356.225 317.067 350.296 319.798 345.077C321.142 342.509 323.162 340.389 324.512 337.799L323.589 337.087C354.692 325.481 387.438 320.219 420.022 314.702C421.272 313.497 422.38 312.181 423.511 310.865C424.864 311.099 425.115 311.618 426.071 312.526C430.91 312.549 433.957 310.735 438.097 308.492C441.251 308.627 444.857 308.208 447.918 308.64L449.042 310.276C460.19 307.744 471.787 307.503 483.165 307.106C503.028 306.413 522.571 306.607 542.416 307.649L542.99 307.725C543.509 308.926 543.136 308.435 544.062 309.233C547.564 308.797 550.087 307.117 553.073 305.369Z"/>
	<path fill="#683823" d="M400.096 398.601C408.262 397.805 416.101 399.155 423.809 401.839C427.506 403.127 435.208 405.838 436.457 409.91C436.704 410.715 436.692 411.564 436.326 412.316C434.591 415.887 429.385 416.747 425.94 417.735C417.534 419.178 408.152 419.34 400.028 416.419C396.135 415.02 390.19 411.947 388.685 407.863C388.227 406.62 388.223 405.509 388.884 404.324C390.775 400.936 396.536 399.384 400.096 398.601Z"/>
	<path fill="#683823" d="M347.991 397.217C355.979 397.342 364.654 398.733 370.947 404.098C373.172 405.995 375.071 408.599 375.179 411.621C375.251 413.627 374.471 415.473 373.08 416.906C368.82 421.294 360.405 422.323 354.56 422.57C346.691 422.585 337.707 420.677 331.395 415.736C329.043 413.895 326.668 411.234 326.39 408.117C326.226 406.27 326.951 404.445 328.216 403.115C332.771 398.328 341.77 397.577 347.991 397.217Z"/>
	<path fill="#683823" d="M453.76 422.219C457.726 422.071 461.901 422.404 465.79 423.192C481.148 426.306 493.102 434.934 501.668 447.829C495.994 448.465 490.325 449.158 484.624 449.496C470.442 450.281 452.303 449.421 440.136 441.099C437.874 439.552 435.801 437.497 435.329 434.685C434.931 432.314 435.702 429.574 437.24 427.732C440.99 423.24 448.303 422.551 453.76 422.219Z"/>
	<defs>
		<linearGradient id="gradient_2" gradientUnits="userSpaceOnUse" x1="341.86258" y1="300.68442" x2="602.66528" y2="430.81049">
			<stop offset="0" stop-color="#6C5247"/>
			<stop offset="1" stop-color="#B2A6A6"/>
		</linearGradient>
	</defs>
	<path fill="url(#gradient_2)" d="M553.073 305.369C555.474 306.999 556.608 307.854 559.557 307.271C559.705 307.241 559.851 307.209 559.999 307.178L560.439 308.971C558.085 309.801 555.71 310.583 553.429 311.599C553.961 312.52 553.755 312.618 554.86 312.912C561.119 314.577 571.107 314.512 577.908 315.313C596.336 317.484 616.131 320.564 633.882 326.096C635.587 330.853 634.598 334.786 635.057 339.617C635.216 341.295 635.99 343.107 636.494 344.709C638.716 351.787 640.342 357.568 637.17 364.654L637.409 365.64C639.424 366.349 641.659 367.036 643.175 368.609C635.084 367.163 627.2 364.773 619.139 363.169Q591.367 357.752 563.234 354.728C491.837 346.849 387.134 354.964 321.539 383.256C311.049 387.78 302.348 394.329 292.533 399.882C292.658 399.537 292.826 398.997 293.064 398.724C293.426 398.31 293.976 398.091 294.336 397.676C296.069 395.681 298.308 389.021 299.693 386.345C303.972 378.074 309.058 370.053 312.937 361.6C315.404 356.225 317.067 350.296 319.798 345.077C321.142 342.509 323.162 340.389 324.512 337.799L323.589 337.087C354.692 325.481 387.438 320.219 420.022 314.702C421.272 313.497 422.38 312.181 423.511 310.865C424.864 311.099 425.115 311.618 426.071 312.526C430.91 312.549 433.957 310.735 438.097 308.492C441.251 308.627 444.857 308.208 447.918 308.64L449.042 310.276C460.19 307.744 471.787 307.503 483.165 307.106C503.028 306.413 522.571 306.607 542.416 307.649L542.99 307.725C543.509 308.926 543.136 308.435 544.062 309.233C547.564 308.797 550.087 307.117 553.073 305.369Z"/>
	<path fill="#431C0B" d="M553.073 305.369C555.474 306.999 556.608 307.854 559.557 307.271C559.705 307.241 559.851 307.209 559.999 307.178L560.439 308.971C558.085 309.801 555.71 310.583 553.429 311.599C545.798 313.275 537.704 318.367 530.083 320.93C532.576 318.067 535.009 315.057 537.801 312.48C539.452 310.955 540.929 309.329 542.416 307.649L542.99 307.725C543.509 308.926 543.136 308.435 544.062 309.233C547.564 308.797 550.087 307.117 553.073 305.369Z"/>
	<path fill="#431C0B" d="M438.097 308.492C441.251 308.627 444.857 308.208 447.918 308.64L449.042 310.276C446.288 310.955 443.915 311.975 441.354 313.164C430.265 316.632 420.245 322.379 409.647 327.015C413.119 322.995 417.058 319.108 420.022 314.702C421.272 313.497 422.38 312.181 423.511 310.865C424.864 311.099 425.115 311.618 426.071 312.526C430.91 312.549 433.957 310.735 438.097 308.492Z"/>
	<path fill="#F1EDE6" d="M449.042 310.276C460.19 307.744 471.787 307.503 483.165 307.106C503.028 306.413 522.571 306.607 542.416 307.649C540.929 309.329 539.452 310.955 537.801 312.48C510.319 312.451 483.094 311.534 455.611 313.128C451.407 313.372 445.304 314.424 441.354 313.164C443.915 311.975 446.288 310.955 449.042 310.276Z"/>
	<path fill="#D97739" d="M480.922 361.712C544.102 358.591 625.862 365.146 682.671 394.312C691.675 398.935 699.644 405.401 708.067 410.956Q706.717 412.29 705.235 413.476C699.056 418.356 691.813 422.418 684.944 426.244C650.455 445.455 611.909 453.873 572.657 449.319C553.333 447.03 535.846 439.186 518.625 430.619C506.705 424.689 495.453 417.655 483.639 411.569C451.341 394.928 416.741 382.583 379.931 382.667C367.791 382.695 355.964 384.051 343.94 385.562C387.56 370.077 434.951 364.419 480.922 361.712Z"/>
	<path fill="#DF9A65" d="M532.277 376.711C557.954 374.103 606.125 381.857 628.94 393.684C633.765 396.186 639.953 399.888 641.476 405.456C642.109 407.772 641.81 410.455 640.47 412.471C636.044 419.127 624.223 421.132 616.995 422.392C586.785 427.778 543.735 416.068 518.16 399.185C514.292 396.631 507.4 392.393 506.636 387.446C506.395 385.888 506.888 384.463 507.885 383.275C512.831 377.381 525.145 377.17 532.277 376.711Z"/>
	<path fill="#DF9A65" d="M262.94 470.283C273.681 477.183 283.936 483.8 295.593 489.132C379.141 527.349 509.887 534.169 599.659 517.382C598.098 523.838 597.552 530.553 596.306 537.082C593.505 551.755 589.415 567.337 584.281 581.362C561.668 592.157 546.678 611.325 538.462 634.737C532.442 651.893 529.13 672.966 537.455 689.97C541.799 698.84 548.737 704.597 558.053 707.718L558.663 707.917C543.943 728.967 528.27 747.702 509.396 765.154L508.252 765.871C503.07 765.984 497.915 766.536 492.744 766.852C447.695 769.606 400.732 749.071 367.403 719.619C296.91 657.324 268.573 561.43 262.94 470.283Z"/>
	<path fill="#F1EDE6" d="M286.313 500.429C294.331 502.725 301.427 507.686 309.099 510.876C321.128 515.877 333.844 519.429 346.369 522.93C347.21 537.129 349.614 551.629 351.919 565.656C358.051 602.983 366.308 640.775 379.708 676.211C382.389 683.302 385.649 690.249 388.698 697.192C387.276 696.518 385.991 695.742 384.701 694.843C370.924 685.248 359.044 671.22 348.96 657.914Q346.561 654.738 344.243 651.503Q341.926 648.268 339.691 644.974Q337.456 641.681 335.306 638.332Q333.156 634.983 331.091 631.58Q329.027 628.178 327.049 624.724Q325.072 621.27 323.183 617.767Q321.294 614.264 319.495 610.714Q317.695 607.164 315.987 603.57Q314.278 599.975 312.661 596.339Q311.044 592.702 309.521 589.025Q307.997 585.349 306.567 581.635Q305.137 577.92 303.802 574.171Q302.467 570.422 301.227 566.64Q299.988 562.858 298.845 559.046Q297.702 555.233 296.656 551.393Q295.611 547.553 294.663 543.688C291.115 529.324 288.872 514.97 286.313 500.429Z"/>
	<path fill="#431C0B" d="M395.287 702.13C392.023 692.311 395.284 682.177 399.786 673.237C409.127 654.691 429.375 641.344 448.684 635.187C466.184 629.608 487.161 629.366 503.759 638.045C511.886 642.295 518.189 648.934 520.845 657.825C524.028 668.485 521.32 680.211 516.068 689.756C506.259 707.579 486.769 720.41 467.494 725.778C461.812 727.361 455.858 728.395 449.95 728.506C440.749 730.004 431.741 728.56 423.014 725.421C411.171 721.161 400.757 713.703 395.287 702.13Z"/>
	<path fill="#F9DCB5" d="M398.242 684.369C405.568 666.947 423.589 652.963 440.386 645.335C459.008 636.878 479.101 635.974 498.273 643.151C498.11 643.16 497.948 643.172 497.785 643.178C491.361 643.424 484.899 641.367 478.392 641.439C453.29 641.716 426.064 652.412 408.62 670.634C404.617 674.816 401.899 679.927 398.242 684.369Z"/>
	<path fill="#863205" d="M398.242 684.369C401.899 679.927 404.617 674.816 408.62 670.634C426.064 652.412 453.29 641.716 478.392 641.439C484.899 641.367 491.361 643.424 497.785 643.178C497.948 643.172 498.11 643.16 498.273 643.151C501.772 644.067 505.171 646.118 507.92 648.447C496.136 655.624 482.517 661.061 469.904 666.673Q448.391 676.316 426.508 685.086C416.816 688.95 406.522 693.43 396.182 695.126C395.785 691.868 395.228 688.137 397.381 685.334C397.688 684.934 397.872 684.764 398.242 684.369Z"/>
	<path fill="#683823" d="M511.788 656.115L512.491 655.455C514.031 655.902 514.505 656.915 515.275 658.277C518.802 664.519 517.858 671.148 515.867 677.753C510.693 694.917 497.429 708.563 481.736 716.755C477.687 718.868 473.351 720.692 469.04 722.197C464.093 723.924 453.616 725.344 449.95 728.506C440.749 730.004 431.741 728.56 423.014 725.421C411.171 721.161 400.757 713.703 395.287 702.13C397.501 701.681 399.786 701.491 402.029 701.225C442.433 694.658 478.231 679.317 511.788 656.115Z"/>
	<path fill="#F9DCB5" d="M511.788 656.115C510.523 661.457 499.372 668.074 495.069 670.736Q490.656 673.424 486.127 675.912Q481.598 678.401 476.963 680.685Q472.328 682.969 467.596 685.044Q462.864 687.12 458.044 688.983Q453.224 690.845 448.326 692.492Q443.427 694.138 438.461 695.564Q433.494 696.991 428.469 698.194Q423.444 699.398 418.37 700.377C414.294 701.153 407.901 702.66 403.757 701.942C403.06 701.822 402.608 701.58 402.029 701.225C442.433 694.658 478.231 679.317 511.788 656.115Z"/>
</svg>
